<svg width="11" height="13" viewBox="0 0 11 13" fill="none" xmlns="http://www.w3.org/2000/svg">
<path d="M4.55417 8.37231L7.85 5.07647L7.01875 4.24522L4.55417 6.70981L3.32917 5.48481L2.49792 6.31606L4.55417 8.37231ZM5.16667 12.1348C3.81528 11.7945 2.69965 11.0192 1.81979 9.80876C0.939931 8.59835 0.5 7.25425 0.5 5.77647V2.21814L5.16667 0.46814L9.83333 2.21814V5.77647C9.83333 7.25425 9.3934 8.59835 8.51354 9.80876C7.63368 11.0192 6.51806 11.7945 5.16667 12.1348ZM5.16667 10.9098C6.17778 10.589 7.01389 9.94731 7.675 8.98481C8.33611 8.02231 8.66667 6.95286 8.66667 5.77647V3.02022L5.16667 1.70772L1.66667 3.02022V5.77647C1.66667 6.95286 1.99722 8.02231 2.65833 8.98481C3.31944 9.94731 4.15556 10.589 5.16667 10.9098Z" fill="#00565E" stroke="black" stroke-linejoin="bevel"/>
</svg>
